<?xml version="1.0" standalone="no"?>
<!DOCTYPE svg PUBLIC "-//W3C//DTD SVG 20010904//EN"
 "http://www.w3.org/TR/2001/REC-SVG-20010904/DTD/svg10.dtd">
<svg version="1.0" xmlns="http://www.w3.org/2000/svg"
 width="175.000000pt" height="80.000000pt" viewBox="0 0 175.000000 80.000000"
 preserveAspectRatio="xMidYMid meet">

<g transform="translate(0.000000,80.000000) scale(0.100000,-0.100000)"
fill="#000000" stroke="none">
<path d="M516 755 c-22 -8 -64 -39 -95 -69 l-55 -55 49 14 c62 19 109 19 148
0 18 -9 79 -58 137 -110 58 -52 114 -95 125 -95 11 0 40 14 65 30 25 16 54 30
65 30 11 0 46 -18 79 -40 83 -57 105 -55 261 25 69 36 136 65 147 65 21 0 21
0 2 21 -22 26 -74 49 -106 49 -13 0 -56 -16 -97 -35 -40 -19 -77 -35 -83 -35
-5 0 -42 25 -81 55 -82 64 -107 68 -163 25 -21 -16 -45 -30 -52 -30 -7 0 -49
31 -93 70 -58 50 -96 74 -132 85 -61 18 -71 18 -121 0z"/>
<path d="M386 610 c-60 -24 -70 -32 -171 -155 -109 -133 -126 -165 -85 -165
33 0 74 26 188 116 114 91 227 154 273 154 40 0 36 10 -15 43 -52 33 -117 35
-190 7z"/>
<path d="M1430 524 c-8 -3 -32 -12 -53 -21 l-37 -16 56 -23 c31 -12 97 -54
147 -92 113 -85 117 -87 117 -68 0 8 -27 48 -59 88 -112 138 -124 147 -171
132z"/>
<path d="M800 160 c0 -64 3 -80 15 -80 12 0 15 16 15 80 0 64 -3 80 -15 80
-12 0 -15 -16 -15 -80z"/>
<path d="M1270 225 c0 -8 7 -15 15 -15 8 0 15 7 15 15 0 8 -7 15 -15 15 -8 0
-15 -7 -15 -15z"/>
<path d="M1410 211 c0 -25 -3 -28 -25 -23 -34 6 -55 -14 -55 -53 0 -42 16 -54
68 -53 l42 0 0 79 c0 64 -3 79 -15 79 -10 0 -15 -10 -15 -29z m-5 -76 c0 -23
-4 -30 -20 -30 -21 0 -31 25 -21 51 11 28 41 12 41 -21z"/>
<path d="M67 212 c-9 -10 -20 -32 -23 -49 -9 -43 30 -83 81 -83 19 0 35 5 35
10 0 6 -11 10 -25 10 -26 0 -65 31 -65 53 0 27 31 57 61 57 16 0 29 5 29 10 0
18 -76 11 -93 -8z"/>
<path d="M660 155 l0 -75 36 0 c66 0 93 32 59 70 -14 15 -14 19 0 30 11 9 12
17 4 31 -7 14 -21 19 -54 19 l-45 0 0 -75z m69 29 c-16 -20 -39 -17 -39 4 0
27 10 33 32 21 15 -8 17 -13 7 -25z m6 -59 c0 -13 -8 -21 -22 -23 -19 -3 -23
1 -23 23 0 22 4 26 23 23 14 -2 22 -10 22 -23z"/>
<path d="M1130 155 c0 -60 3 -75 15 -75 10 0 15 10 15 30 0 20 5 30 16 30 8 0
20 -14 25 -30 13 -36 44 -43 33 -7 -3 12 -11 27 -16 34 -7 9 -5 18 6 28 19 19
19 21 6 46 -8 14 -21 19 -55 19 l-45 0 0 -75z m75 45 c8 -13 -13 -40 -31 -40
-8 0 -14 10 -14 25 0 18 5 25 19 25 11 0 23 -5 26 -10z"/>
<path d="M195 180 c-4 -6 7 -10 24 -10 40 0 39 -13 -1 -25 -26 -8 -33 -15 -33
-35 0 -23 4 -25 48 -27 l47 -2 0 43 c0 23 -5 47 -12 54 -15 15 -64 16 -73 2z
m53 -62 c-7 -19 -38 -22 -38 -4 0 10 9 16 21 16 12 0 19 -5 17 -12z"/>
<path d="M310 133 c0 -39 4 -53 14 -53 10 0 16 14 18 43 2 29 8 42 18 42 10 0
16 -13 18 -42 4 -59 30 -59 34 0 2 29 8 42 18 42 10 0 16 -13 18 -42 2 -29 8
-43 18 -43 18 0 20 85 2 97 -7 4 -46 8 -85 9 l-73 1 0 -54z"/>
<path d="M520 109 c0 -64 3 -79 15 -79 10 0 15 10 15 29 0 24 3 28 23 24 43
-8 73 46 47 87 -5 9 -27 15 -55 16 l-45 2 0 -79z m75 42 c8 -26 -4 -51 -26
-51 -14 0 -19 7 -19 28 0 16 3 32 7 35 12 13 32 7 38 -12z"/>
<path d="M867 183 c-10 -10 -8 -62 3 -83 7 -14 21 -18 55 -18 l45 1 0 54 c0
40 -4 53 -15 53 -11 0 -15 -11 -15 -40 0 -28 -5 -43 -16 -47 -21 -8 -34 13
-34 55 0 30 -9 40 -23 25z"/>
<path d="M1018 179 c-21 -12 -24 -69 -6 -87 14 -14 78 -16 78 -2 0 6 -13 10
-30 10 -20 0 -30 5 -30 15 0 10 11 15 35 15 37 0 42 9 25 41 -12 21 -45 24
-72 8z m52 -24 c0 -16 -35 -21 -44 -6 -8 12 4 21 26 21 10 0 18 -7 18 -15z"/>
<path d="M1270 135 c0 -42 3 -55 15 -55 12 0 15 13 15 55 0 42 -3 55 -15 55
-12 0 -15 -13 -15 -55z"/>
<path d="M1485 174 c-35 -35 -4 -101 41 -90 13 4 24 2 24 -3 0 -16 -30 -33
-50 -28 -13 3 -20 0 -20 -9 0 -9 12 -14 34 -14 47 0 66 29 66 100 l0 56 -40 1
c-24 1 -46 -4 -55 -13z m60 -39 c0 -23 -4 -30 -20 -30 -21 0 -31 25 -21 51 11
28 41 12 41 -21z"/>
<path d="M1628 179 c-21 -12 -24 -69 -6 -87 14 -14 78 -16 78 -2 0 6 -13 10
-30 10 -20 0 -30 5 -30 15 0 10 11 15 35 15 27 0 35 4 35 18 0 37 -44 54 -82
31z m52 -24 c0 -8 -9 -15 -20 -15 -11 0 -20 7 -20 15 0 8 9 15 20 15 11 0 20
-7 20 -15z"/>
</g>
</svg>
